<svg width="358" height="412" viewBox="0 0 358 412" fill="none" xmlns="http://www.w3.org/2000/svg">
<path d="M179 0.909912C80.6098 0.909912 0.849786 80.6699 0.849786 179.06C0.849786 180.09 0.819785 182.04 0.879785 184.77C0.919785 186.47 1.57979 210.05 8.84979 231.99C12.5298 243.08 26.7798 286.38 69.2098 309.12C84.6298 317.38 99.0798 320.42 108.71 321.67C99.3698 312.94 85.8898 298.24 75.1498 276.79C71.9898 270.49 64.6598 254.21 60.7798 233.21C58.1698 219.1 48.0698 164.51 83.7998 121.02C87.8098 116.14 124.15 73.3799 179.01 77.9499C226.71 81.9199 280.11 120.98 280.11 179.05C280.11 232.81 238.14 276.77 185.17 279.95V215.95C188.58 216.86 192.16 217.33 195.84 217.33C219.34 217.33 238.39 197.89 238.39 173.9C238.39 149.91 219.34 130.47 195.84 130.47H141.24V392.01C141.24 392.01 167.93 408.13 197.53 411.7V355.05C282.77 341.75 357.17 268.02 357.17 179.05C357.17 80.6599 277.41 0.899902 179.02 0.899902L179 0.909912Z" fill="url(#paint0_linear_1_94)"/>
<defs>
<linearGradient id="paint0_linear_1_94" x1="284.69" y1="361.38" x2="90.2298" y2="24.5599" gradientUnits="userSpaceOnUse">
<stop stop-color="#393C44"/>
<stop offset="0.33" stop-color="#7A684A"/>
<stop offset="0.68" stop-color="#DBA127"/>
<stop offset="1" stop-color="#FFCF6F"/>
</linearGradient>
</defs>
</svg>
