<svg width="295" height="84" viewBox="0 0 295 84" fill="none" xmlns="http://www.w3.org/2000/svg">
<path d="M35.9987 0.00204679C16.1179 0.00204679 0.00151558 16.3113 0.00151558 36.43C0.00151558 36.6406 -0.0045465 37.0393 0.00757718 37.5976C0.0156596 37.9452 0.14902 42.7668 1.61801 47.2531C2.36159 49.5207 5.24096 58.3747 13.8144 63.0245C16.9302 64.7135 19.85 65.3352 21.7958 65.5908C19.9086 63.8056 17.1848 60.7998 15.0147 56.4137C14.3762 55.1255 12.895 51.7966 12.111 47.5025C11.5837 44.6173 9.54285 33.4548 16.7625 24.562C17.5728 23.5642 24.9157 14.8206 36.0008 15.7551C45.6391 16.5669 56.4292 24.5538 56.4292 36.4279C56.4292 47.4207 47.9486 56.4096 37.2455 57.0599V43.9732C37.9345 44.1593 38.6579 44.2554 39.4015 44.2554C44.1499 44.2554 47.9992 40.2803 47.9992 35.3749C47.9992 30.4694 44.1499 26.4944 39.4015 26.4944H28.3689V79.9738C28.3689 79.9738 33.7619 83.27 39.7429 84V72.4163C56.9666 69.6967 72 54.6204 72 36.4279C72 16.3092 55.8836 0 36.0028 0L35.9987 0.00204679Z" fill="url(#paint0_linear_217_642)"/>
<path d="M292 66.5C283.417 66.6133 274.834 66.66 266.25 66.7433L240.501 66.8833C231.918 66.9433 223.334 66.9333 214.751 66.9533L189.001 67L137.499 66.8867L111.75 66.7467C103.166 66.6633 94.5832 66.6133 86 66.5C94.5832 66.3867 103.166 66.3367 111.75 66.2533L137.499 66.1133L189.001 66L214.751 66.0467C223.334 66.07 231.918 66.0567 240.501 66.1167L266.25 66.2567C274.834 66.34 283.417 66.3867 292 66.5Z" fill="#E09F18"/>
<path d="M86.0156 47.6941C86.0156 43.1489 89.5269 39.6115 93.8455 39.6115C98.1642 39.6115 101.675 43.146 101.675 47.6941C101.675 52.2422 98.1642 55.7767 93.8455 55.7767C89.5269 55.7767 86.0156 52.2422 86.0156 47.6941ZM98.0103 47.6941C98.0103 45.0686 96.1399 43.1489 93.8426 43.1489C91.5454 43.1489 89.675 45.0686 89.675 47.6941C89.675 50.3196 91.5454 52.2393 93.8426 52.2393C96.1399 52.2393 98.0103 50.3196 98.0103 47.6941Z" fill="#E09F18"/>
<path d="M102.053 39.7393H105.84L109.375 50.7262L112.909 39.7393H116.696L111.265 55.6518H107.478L102.047 39.7393H102.053Z" fill="#E09F18"/>
<path d="M118.343 39.7393H129.708V43.2738H122.005V45.8005H129.077V49.335H122.005V52.1144H129.96V55.6489H118.343V39.7364V39.7393Z" fill="#E09F18"/>
<path d="M132.487 39.7393H138.926C142.234 39.7393 144.482 42.0366 144.482 44.7898C144.508 48.3505 141.476 49.5877 141.452 49.5877L144.987 55.6489H140.947L138.043 50.3457H136.149V55.6489H132.487V39.7364V39.7393ZM138.929 46.8112C140.215 46.8112 140.95 46.0532 140.95 45.0425C140.95 44.0318 140.218 43.2738 138.929 43.2738H136.149V46.8083H138.929V46.8112Z" fill="#E09F18"/>
<path d="M149.663 50.3458C149.663 51.7863 150.421 52.492 151.937 52.492C153.351 52.492 154.083 51.734 154.083 50.8511C154.083 48.4522 146.253 49.8404 146.253 44.1597C146.253 41.7607 148.399 39.6145 151.937 39.6145C155.474 39.6145 157.493 41.7607 157.493 44.665L153.958 44.9177C153.958 43.6311 153.226 42.8963 151.937 42.8963C150.801 42.8963 150.043 43.6282 150.043 44.4123C150.043 46.6864 157.873 45.2953 157.873 51.1038C157.873 53.6305 155.727 55.7768 151.937 55.7768C148.147 55.7768 146.128 53.6305 146.128 50.5985L149.663 50.3458Z" fill="#E09F18"/>
<path d="M160.144 39.7393H171.509V43.2738H163.807V45.8005H170.878V49.335H163.807V52.1144H171.761V55.6489H160.144V39.7364V39.7393Z" fill="#E09F18"/>
<path d="M178.331 39.7393H182.118L187.802 55.6518H184.014L183.004 52.6197H177.448L176.437 55.6518H172.65L178.334 39.7393H178.331ZM181.993 49.4628L180.224 44.1596L178.456 49.4628H181.99H181.993Z" fill="#E09F18"/>
<path d="M191.969 50.3458C191.969 51.7863 192.727 52.492 194.243 52.492C195.658 52.492 196.39 51.734 196.39 50.8511C196.39 48.4522 188.56 49.8404 188.56 44.1597C188.56 41.7607 190.706 39.6145 194.243 39.6145C197.781 39.6145 199.799 41.7607 199.799 44.665L196.265 44.9177C196.265 43.6311 195.533 42.8963 194.243 42.8963C193.108 42.8963 192.35 43.6282 192.35 44.4123C192.35 46.6864 200.18 45.2953 200.18 51.1038C200.18 53.6305 198.033 55.7768 194.243 55.7768C190.453 55.7768 188.435 53.6305 188.435 50.5985L191.969 50.3458Z" fill="#E09F18"/>
<path d="M208.262 39.7393H214.448C217.73 39.7393 220.132 42.1382 220.132 45.1703C220.132 48.2024 217.733 50.6013 214.448 50.6013H211.922V55.6518H208.259V39.7393H208.262ZM214.448 47.061C215.584 47.061 216.47 46.1781 216.47 45.1674C216.47 44.1567 215.587 43.2738 214.448 43.2738H211.922V47.061H214.448Z" fill="#E09F18"/>
<path d="M221.018 39.7393H224.805L228.339 50.7262L231.874 39.7393H235.661L230.23 55.6518H226.443L221.012 39.7393H221.018Z" fill="#E09F18"/>
<path d="M240.59 43.2738H236.044V39.7393H248.8V43.2738H244.255V55.6489H240.592V43.2738H240.59Z" fill="#E09F18"/>
<path d="M256.377 39.7393H260.04V52.1144H267.236V55.6489H256.377V39.7364V39.7393Z" fill="#E09F18"/>
<path d="M271.279 43.2738H266.734V39.7393H279.486V43.2738H274.941V55.6489H271.279V43.2738Z" fill="#E09F18"/>
<path d="M281.255 39.7393H286.686C291.106 39.7393 294.641 43.2738 294.641 47.6941C294.641 52.1144 291.106 55.6489 286.686 55.6489H281.255V39.7364V39.7393ZM286.686 52.1144C289.111 52.1144 290.979 50.2208 290.979 47.6941C290.979 45.1674 289.108 43.2738 286.686 43.2738H284.917V52.1144H286.686Z" fill="#E09F18"/>
<path d="M86.0156 9.17871H94.6943C99.2989 9.17871 102.664 12.5435 102.664 16.7935C102.664 21.0434 99.2989 24.4082 94.6943 24.4082H91.1507V31.4924H86.0156V9.17871ZM94.6943 19.4489C96.2887 19.4489 97.5286 18.2091 97.5286 16.7935C97.5286 15.3778 96.2887 14.138 94.6943 14.138H91.1507V19.4518H94.6943V19.4489Z" fill="#E09F18"/>
<path d="M110.103 9.17871H115.416L123.386 31.4924H118.072L116.656 27.2425H108.863L107.447 31.4924H102.133L110.103 9.17871ZM115.238 22.8137L112.758 15.3749L110.278 22.8137H115.238Z" fill="#E09F18"/>
<path d="M125.332 9.17871H129.937L138.97 22.2832V9.17871H144.105V31.4924H139.5L130.467 18.3879V31.4924H125.332V9.17871Z" fill="#E09F18"/>
<path d="M168.547 23.6989C167.52 27.9489 163.766 31.6683 158.273 31.6683C152.216 31.6683 147.294 26.7091 147.294 20.3342C147.294 13.9592 152.219 9 158.273 9C163.55 9 167.341 12.7194 168.368 16.9694L163.054 17.324C162.486 15.5537 160.929 13.9592 158.273 13.9592C155.05 13.9592 152.429 16.6522 152.429 20.3342C152.429 24.0161 155.05 26.7091 158.273 26.7091C161.108 26.7091 162.702 25.1492 163.233 23.3443L168.547 23.6989Z" fill="#E09F18"/>
<path d="M171.378 9.17871H176.513V17.6786H185.013V9.17871H190.148V31.4924H185.013V22.6378H176.513V31.4924H171.378V9.17871Z" fill="#E09F18"/>
<path d="M194.401 9.17871H203.434C208.074 9.17871 211.228 12.4022 211.228 16.2629C211.262 21.2568 207.012 22.9925 206.978 22.9925L211.937 31.4924H206.269L202.195 24.0535H199.539V31.4924H194.404V9.17871H194.401ZM203.434 19.0943C205.242 19.0943 206.269 18.0304 206.269 16.6147C206.269 15.199 205.242 14.1351 203.434 14.1351H199.539V19.0943H203.434Z" fill="#E09F18"/>
<path d="M220.258 9.17871H225.572L233.541 31.4924H228.228L226.812 27.2425H219.018L217.603 31.4924H212.289L220.258 9.17871ZM225.396 22.8137L222.917 15.3749L220.437 22.8137H225.396Z" fill="#E09F18"/>
<path d="M238.677 14.138H232.302V9.17871H250.189V14.138H243.815V31.4953H238.679V14.138H238.677Z" fill="#E09F18"/>
<path d="M252.669 9.17871H257.274L266.307 22.2832V9.17871H271.442V31.4924H266.837L257.804 18.3879V31.4924H252.669V9.17871Z" fill="#E09F18"/>
<path d="M281.358 9.17871H286.672L294.641 31.4924H289.327L287.911 27.2425H280.118L278.702 31.4924H273.388L281.358 9.17871ZM286.496 22.8137L284.016 15.3749L281.537 22.8137H286.496Z" fill="#E09F18"/>
<path d="M86.7481 83.5842V77.8022H84V76.8179H90.5499V77.8022H87.796V83.5842H86.7481Z" fill="#E09F18"/>
<path d="M92.3223 83.7459C91.4043 83.7459 90.7606 83.6045 90.3507 83.3158C89.9321 83.0214 89.7214 82.5364 89.7214 81.8725V78.3103H90.7462V81.6646C90.7462 82.1092 90.8472 82.4094 91.0435 82.5537C91.2513 82.7067 91.6872 82.7847 92.3367 82.7847C92.9862 82.7847 93.4279 82.7067 93.6357 82.5537C93.832 82.4065 93.9331 82.1092 93.9331 81.6646V78.3103H94.9521V81.8725C94.9521 82.5277 94.7384 83.0127 94.3141 83.31C93.8984 83.6016 93.246 83.7459 92.3252 83.7459H92.3223Z" fill="#E09F18"/>
<path d="M100.994 83.5843L99.5621 81.376H97.5386V83.5843H96.5138V78.3103H100.111C100.653 78.3103 101.086 78.446 101.398 78.7115C101.716 78.9829 101.877 79.361 101.877 79.8345C101.877 80.2213 101.75 80.559 101.502 80.8419C101.288 81.0815 101.02 81.246 100.699 81.3269L102.125 83.5843H100.994ZM100.108 80.406C100.35 80.406 100.538 80.3541 100.659 80.2559C100.777 80.1607 100.832 80.0221 100.832 79.8345C100.832 79.6468 100.775 79.5112 100.659 79.4188C100.538 79.3206 100.35 79.2716 100.108 79.2716H97.5357V80.4089H100.108V80.406Z" fill="#E09F18"/>
<path d="M107.186 83.5842L104.143 80.2298V83.5842H103.133V78.2986H103.713L106.761 81.6674V78.2986H107.766V83.5842H107.186Z" fill="#E09F18"/>
<path d="M110.361 78.2871H109.325V83.587H110.361V78.2871Z" fill="#E09F18"/>
<path d="M115.984 83.5842L112.945 80.2298V83.5842H111.932V78.2986H112.512L115.56 81.6674V78.2986H116.568V83.5842H115.984Z" fill="#E09F18"/>
<path d="M120.97 83.7459C120.014 83.7459 119.22 83.4832 118.611 82.9636C117.996 82.4382 117.682 81.7656 117.682 80.9602C117.682 80.1548 117.996 79.4793 118.617 78.9511C119.232 78.4286 120.023 78.163 120.97 78.163C121.567 78.163 122.107 78.267 122.572 78.4748C123.039 78.6826 123.435 78.9944 123.744 79.3985L123.816 79.4938L123.019 80.0682L122.95 79.9787C122.751 79.7161 122.474 79.5053 122.127 79.3552C121.778 79.2022 121.388 79.1243 120.97 79.1243C120.309 79.1243 119.763 79.3004 119.344 79.6468C118.926 79.9932 118.724 80.4204 118.724 80.9487C118.724 81.4769 118.926 81.9042 119.342 82.2506C119.757 82.597 120.306 82.773 120.97 82.773C121.385 82.773 121.775 82.698 122.13 82.545C122.462 82.4036 122.696 82.2246 122.832 82.0138V81.6184H121.547V80.66H123.862V82.3372L123.842 82.366C123.539 82.8164 123.14 83.1599 122.653 83.3937C122.171 83.6246 121.602 83.743 120.97 83.743V83.7459Z" fill="#E09F18"/>
<path d="M129.332 83.5842V76.8179H133.313C133.98 76.8179 134.497 76.9651 134.846 77.2567C135.201 77.554 135.383 77.9928 135.383 78.5614C135.383 78.8386 135.328 79.0897 135.215 79.312C135.132 79.4823 135.016 79.6266 134.878 79.7479C135.169 79.9413 135.4 80.1722 135.559 80.4378C135.747 80.7467 135.842 81.1046 135.842 81.503C135.842 82.138 135.628 82.6519 135.207 83.0242C134.791 83.3966 134.222 83.5842 133.518 83.5842H129.329H129.332ZM133.683 82.6028C134.023 82.6028 134.283 82.5075 134.476 82.3083C134.67 82.1092 134.762 81.8436 134.762 81.4914C134.762 81.1392 134.667 80.8794 134.474 80.6774C134.28 80.4782 134.023 80.38 133.68 80.38H130.374V82.5999H133.68L133.683 82.6028ZM133.385 79.3986C133.7 79.3986 133.94 79.3293 134.098 79.1936C134.254 79.0608 134.329 78.8703 134.329 78.6105C134.329 78.3363 134.257 78.1371 134.104 78.0043C133.951 77.8715 133.709 77.8022 133.382 77.8022H130.372V79.4015H133.382L133.385 79.3986Z" fill="#E09F18"/>
<path d="M139.947 83.7458C139.023 83.7458 138.249 83.4802 137.652 82.952C137.049 82.4237 136.743 81.7482 136.743 80.9457C136.743 80.1433 137.049 79.4678 137.649 78.9424C138.246 78.4228 139.02 78.1601 139.947 78.1601C140.873 78.1601 141.659 78.4228 142.256 78.9395C142.857 79.462 143.162 80.1375 143.162 80.9457C143.162 81.754 142.857 82.4266 142.253 82.9549C141.656 83.4774 140.879 83.7458 139.947 83.7458ZM139.947 79.1214C139.309 79.1214 138.781 79.2974 138.379 79.641C137.978 79.9874 137.785 80.4146 137.785 80.9486C137.785 81.4827 137.978 81.9099 138.379 82.2563C138.781 82.5998 139.306 82.7759 139.947 82.7759C140.588 82.7759 141.122 82.5998 141.523 82.2563C141.927 81.9099 142.12 81.4827 142.12 80.9486C142.12 80.4146 141.924 79.9931 141.517 79.6439C141.113 79.2975 140.582 79.1214 139.944 79.1214H139.947Z" fill="#E09F18"/>
<path d="M146.881 83.7459C145.963 83.7459 145.319 83.6045 144.909 83.3158C144.49 83.0214 144.28 82.5364 144.28 81.8725V78.3103H145.304V81.6646C145.304 82.1092 145.405 82.4094 145.602 82.5537C145.81 82.7067 146.245 82.7847 146.895 82.7847C147.544 82.7847 147.986 82.7067 148.194 82.5537C148.39 82.4065 148.491 82.1092 148.491 81.6646V78.3103H149.51V81.8725C149.51 82.5277 149.297 83.0127 148.872 83.31C148.457 83.6016 147.804 83.7459 146.883 83.7459H146.881Z" fill="#E09F18"/>
<path d="M155.122 83.5842L152.082 80.2298V83.5842H151.069V78.2986H151.649L154.698 81.6674V78.2986H155.705V83.5842H155.122Z" fill="#E09F18"/>
<path d="M161.695 79.0376C161.17 78.5469 160.471 78.2986 159.622 78.2986H157.261V83.5842H159.622C160.491 83.5842 161.196 83.3446 161.709 82.8712C162.226 82.3949 162.489 81.7511 162.489 80.9602C162.489 80.1692 162.223 79.5284 161.695 79.0376ZM158.286 79.257H159.634C160.177 79.257 160.618 79.4158 160.95 79.7304C161.285 80.0451 161.447 80.4434 161.447 80.9486C161.447 81.4538 161.291 81.8724 160.97 82.1755C160.65 82.4728 160.2 82.6258 159.634 82.6258H158.286V79.257Z" fill="#E09F18"/>
<path d="M167.448 83.5842L166.79 82.2996H164.261L163.609 83.5842H162.515L165.202 78.2986H165.84L168.551 83.5842H167.445H167.448ZM166.325 81.4018L165.531 79.8344L164.726 81.4018H166.325Z" fill="#E09F18"/>
<path d="M173.545 83.5843L172.113 81.376H170.089V83.5843H169.065V78.3103H172.662C173.204 78.3103 173.637 78.446 173.949 78.7115C174.267 78.9829 174.428 79.361 174.428 79.8345C174.428 80.2213 174.301 80.559 174.053 80.8419C173.839 81.0815 173.571 81.246 173.25 81.3269L174.676 83.5843H173.545ZM172.659 80.406C172.901 80.406 173.089 80.3541 173.21 80.2559C173.328 80.1607 173.383 80.0221 173.383 79.8345C173.383 79.6468 173.325 79.5112 173.21 79.4188C173.089 79.3206 172.901 79.2716 172.659 79.2716H170.087V80.4089H172.659V80.406Z" fill="#E09F18"/>
<path d="M176.72 78.2871H175.684V83.587H176.72V78.2871Z" fill="#E09F18"/>
<path d="M178.276 83.5842V78.2986H183.25V79.2686H179.301V80.2991H181.893V81.2575H179.301V82.6258H183.469V83.5842H178.276Z" fill="#E09F18"/>
<path d="M186.884 83.7458C186.388 83.7458 185.885 83.6736 185.392 83.5322C184.901 83.3908 184.442 83.1858 184.032 82.9231L183.94 82.8625L184.442 81.9965L184.543 82.0658C184.881 82.2909 185.253 82.4699 185.652 82.5969C186.05 82.7239 186.434 82.7874 186.795 82.7874C187.219 82.7874 187.565 82.7008 187.819 82.5305C188.062 82.3689 188.183 82.1668 188.183 81.9186C188.183 81.6703 188.079 81.4971 187.863 81.3759C187.629 81.246 187.242 81.1709 186.72 81.1565C185.773 81.1449 185.135 81.0352 184.771 80.8216C184.39 80.5993 184.2 80.2298 184.2 79.7218C184.2 79.2513 184.407 78.8644 184.814 78.5787C185.21 78.3015 185.741 78.1601 186.399 78.1601C186.844 78.1601 187.28 78.2236 187.695 78.3477C188.111 78.4719 188.518 78.6595 188.905 78.9049L189 78.9655L188.483 79.8228L188.382 79.7535C188.076 79.5486 187.744 79.3869 187.392 79.2743C187.043 79.1618 186.702 79.104 186.385 79.104C186.024 79.104 185.732 79.1675 185.519 79.2888C185.322 79.4014 185.227 79.5428 185.227 79.716C185.227 79.8892 185.317 80.0105 185.507 80.0884C185.727 80.1779 186.125 80.2212 186.685 80.2212C187.511 80.2212 188.146 80.3655 188.573 80.6484C189.015 80.9429 189.24 81.3816 189.24 81.959C189.24 82.4728 189.015 82.9029 188.57 83.2406C188.134 83.5697 187.568 83.7372 186.881 83.7372L186.884 83.7458Z" fill="#E09F18"/>
<path d="M195.738 76.7832H194.684V83.5842H195.738V76.7832Z" fill="#E09F18"/>
<path d="M201.462 83.5842L198.422 80.2298V83.5842H197.409V78.2986H197.989L201.038 81.6674V78.2986H202.045V83.5842H201.462Z" fill="#E09F18"/>
<path d="M204.793 83.5842V79.2339H202.66V78.2986H207.948V79.2339H205.809V83.5842H204.793Z" fill="#E09F18"/>
<path d="M211.32 83.7458C210.396 83.7458 209.623 83.4802 209.025 82.952C208.422 82.4237 208.116 81.7482 208.116 80.9457C208.116 80.1433 208.422 79.4678 209.022 78.9424C209.62 78.4228 210.393 78.1601 211.32 78.1601C212.247 78.1601 213.032 78.4228 213.629 78.9395C214.23 79.462 214.536 80.1375 214.536 80.9457C214.536 81.754 214.23 82.4266 213.626 82.9549C213.029 83.4774 212.252 83.7458 211.32 83.7458ZM211.32 79.1214C210.682 79.1214 210.154 79.2974 209.752 79.641C209.351 79.9874 209.158 80.4146 209.158 80.9486C209.158 81.4827 209.351 81.9099 209.752 82.2563C210.154 82.5998 210.679 82.7759 211.32 82.7759C211.961 82.7759 212.495 82.5998 212.896 82.2563C213.3 81.9099 213.494 81.4827 213.494 80.9486C213.494 80.4146 213.297 79.9931 212.89 79.6439C212.486 79.2975 211.955 79.1214 211.317 79.1214H211.32Z" fill="#E09F18"/>
<path d="M222.823 83.7574C221.816 83.7574 220.973 83.4197 220.318 82.7557C219.66 82.0918 219.328 81.2373 219.328 80.2212C219.328 79.2051 219.662 78.3449 220.321 77.6809C220.979 77.017 221.822 76.6793 222.823 76.6793C223.825 76.6793 224.677 77.017 225.338 77.6838C225.999 78.3506 226.336 79.2051 226.336 80.2212C226.336 81.2373 226.002 82.0918 225.341 82.7557C224.68 83.4197 223.834 83.7574 222.823 83.7574ZM222.823 77.6723C222.125 77.6723 221.539 77.9148 221.083 78.3911C220.624 78.8702 220.393 79.4851 220.393 80.2212C220.393 80.9573 220.624 81.5693 221.083 82.0485C221.539 82.5248 222.125 82.7644 222.823 82.7644C223.522 82.7644 224.108 82.5248 224.564 82.0485C225.023 81.5722 225.254 80.9573 225.254 80.2212C225.254 79.4851 225.023 78.8645 224.567 78.3882C224.111 77.9119 223.525 77.6723 222.823 77.6723Z" fill="#E09F18"/>
<path d="M227.471 83.5842V78.2986H231.264C231.81 78.2986 232.245 78.4314 232.554 78.697C232.869 78.9655 233.031 79.3465 233.031 79.8228C233.031 80.276 232.872 80.6542 232.563 80.9429C232.254 81.2315 231.844 81.3759 231.348 81.3759H228.499V83.5842H227.474H227.471ZM231.261 80.4059C231.501 80.4059 231.685 80.354 231.807 80.2558C231.925 80.1606 231.98 80.022 231.98 79.8344C231.98 79.6467 231.925 79.5139 231.812 79.4187C231.697 79.3205 231.524 79.2686 231.296 79.2686H228.493V80.4059H231.261Z" fill="#E09F18"/>
<path d="M233.972 83.5842V78.2986H237.765C238.31 78.2986 238.746 78.4314 239.055 78.697C239.37 78.9655 239.531 79.3465 239.531 79.8228C239.531 80.276 239.373 80.6542 239.064 80.9429C238.755 81.2315 238.345 81.3759 237.848 81.3759H234.999V83.5842H233.975H233.972ZM237.762 80.4059C238.001 80.4059 238.186 80.354 238.307 80.2558C238.426 80.1606 238.481 80.022 238.481 79.8344C238.481 79.6467 238.426 79.5139 238.313 79.4187C238.198 79.3205 238.025 79.2686 237.797 79.2686H234.994V80.4059H237.762Z" fill="#E09F18"/>
<path d="M243.235 83.7458C242.311 83.7458 241.538 83.4802 240.94 82.952C240.337 82.4237 240.031 81.7482 240.031 80.9457C240.031 80.1433 240.337 79.4678 240.937 78.9424C241.535 78.4228 242.308 78.1601 243.235 78.1601C244.162 78.1601 244.947 78.4228 245.544 78.9395C246.145 79.462 246.451 80.1375 246.451 80.9457C246.451 81.754 246.145 82.4266 245.542 82.9549C244.944 83.4774 244.167 83.7458 243.235 83.7458ZM243.235 79.1214C242.597 79.1214 242.069 79.2974 241.668 79.641C241.266 79.9874 241.073 80.4146 241.073 80.9486C241.073 81.4827 241.266 81.9099 241.668 82.2563C242.069 82.5998 242.594 82.7759 243.235 82.7759C243.876 82.7759 244.41 82.5998 244.811 82.2563C245.215 81.9099 245.409 81.4827 245.409 80.9486C245.409 80.4146 245.212 79.9931 244.805 79.6439C244.401 79.2975 243.87 79.1214 243.232 79.1214H243.235Z" fill="#E09F18"/>
<path d="M252.045 83.5843L250.613 81.376H248.59V83.5843H247.565V78.3103H251.162C251.705 78.3103 252.138 78.446 252.449 78.7115C252.767 78.9829 252.928 79.361 252.928 79.8345C252.928 80.2213 252.801 80.559 252.553 80.8419C252.34 81.0815 252.071 81.246 251.751 81.3269L253.177 83.5843H252.045ZM251.162 80.406C251.404 80.406 251.592 80.3541 251.713 80.2559C251.832 80.1607 251.886 80.0221 251.886 79.8345C251.886 79.6468 251.829 79.5112 251.713 79.4188C251.592 79.3206 251.404 79.2716 251.162 79.2716H248.59V80.4089H251.162V80.406Z" fill="#E09F18"/>
<path d="M255.376 83.5842V79.2339H253.243V78.2986H258.532V79.2339H256.393V83.5842H255.376Z" fill="#E09F18"/>
<path d="M261.744 83.7459C260.826 83.7459 260.183 83.6045 259.773 83.3158C259.354 83.0214 259.143 82.5364 259.143 81.8725V78.3103H260.168V81.6646C260.168 82.1092 260.269 82.4094 260.466 82.5537C260.673 82.7067 261.109 82.7847 261.759 82.7847C262.408 82.7847 262.85 82.7067 263.058 82.5537C263.254 82.4065 263.355 82.1092 263.355 81.6646V78.3103H264.374V81.8725C264.374 82.5277 264.161 83.0127 263.736 83.31C263.321 83.6016 262.668 83.7459 261.747 83.7459H261.744Z" fill="#E09F18"/>
<path d="M269.986 83.5842L266.946 80.2298V83.5842H265.933V78.2986H266.513L269.562 81.6674V78.2986H270.569V83.5842H269.986Z" fill="#E09F18"/>
<path d="M273.161 78.2871H272.125V83.587H273.161V78.2871Z" fill="#E09F18"/>
<path d="M275.921 83.5842V79.2339H273.791V78.2986H279.076V79.2339H276.94V83.5842H275.921Z" fill="#E09F18"/>
<path d="M280.724 78.2871H279.688V83.587H280.724V78.2871Z" fill="#E09F18"/>
<path d="M282.283 83.5842V78.2986H287.254V79.2686H283.308V80.2991H285.9V81.2575H283.308V82.6258H287.473V83.5842H282.283Z" fill="#E09F18"/>
<path d="M290.888 83.7458C290.392 83.7458 289.89 83.6736 289.396 83.5322C288.905 83.3908 288.446 83.1858 288.036 82.9231L287.944 82.8625L288.446 81.9965L288.547 82.0658C288.885 82.2909 289.257 82.4699 289.656 82.5969C290.054 82.7239 290.438 82.7874 290.799 82.7874C291.223 82.7874 291.57 82.7008 291.824 82.5305C292.066 82.3689 292.187 82.1668 292.187 81.9186C292.187 81.6703 292.083 81.4971 291.867 81.3759C291.633 81.246 291.246 81.1709 290.724 81.1565C289.777 81.1449 289.139 81.0352 288.775 80.8216C288.394 80.5993 288.204 80.2298 288.204 79.7218C288.204 79.2513 288.412 78.8644 288.819 78.5787C289.214 78.3015 289.745 78.1601 290.403 78.1601C290.848 78.1601 291.284 78.2236 291.7 78.3477C292.115 78.4719 292.522 78.6595 292.909 78.9049L293.004 78.9655L292.488 79.8228L292.387 79.7535C292.081 79.5486 291.749 79.3869 291.396 79.2743C291.047 79.1618 290.706 79.104 290.389 79.104C290.028 79.104 289.737 79.1675 289.523 79.2888C289.327 79.4014 289.231 79.5428 289.231 79.716C289.231 79.8892 289.321 80.0105 289.511 80.0884C289.731 80.1779 290.129 80.2212 290.689 80.2212C291.515 80.2212 292.15 80.3655 292.577 80.6484C293.019 80.9429 293.244 81.3816 293.244 81.959C293.244 82.4728 293.019 82.9029 292.574 83.2406C292.138 83.5697 291.572 83.7372 290.885 83.7372L290.888 83.7458Z" fill="#E09F18"/>
<defs>
<linearGradient id="paint0_linear_217_642" x1="57.3546" y1="73.7106" x2="17.3565" y2="5.25" gradientUnits="userSpaceOnUse">
<stop stop-color="#393C44"/>
<stop offset="0.33" stop-color="#7A684A"/>
<stop offset="0.68" stop-color="#DBA127"/>
<stop offset="1" stop-color="#FFCF6F"/>
</linearGradient>
</defs>
</svg>
