<svg width="14" height="12" viewBox="0 0 14 12" fill="none" xmlns="http://www.w3.org/2000/svg">
<path d="M0 3.54433V9.33333C0 9.95217 0.245833 10.5457 0.683417 10.9832C1.121 11.4208 1.71449 11.6667 2.33333 11.6667H11.6667C12.2855 11.6667 12.879 11.4208 13.3166 10.9832C13.7542 10.5457 14 9.95217 14 9.33333V2.33333C14 1.71449 13.7542 1.121 13.3166 0.683417C12.879 0.245833 12.2855 0 11.6667 0H2.33333C1.71449 0 1.121 0.245833 0.683417 0.683417C0.245833 1.121 0 1.71449 0 2.33333V3.54433ZM2.33333 1.16667H11.6667C11.9761 1.16667 12.2728 1.28958 12.4916 1.50838C12.7104 1.72717 12.8333 2.02391 12.8333 2.33333V3.19667L7 6.33733L1.16667 3.19667V2.33333C1.16667 2.02391 1.28958 1.72717 1.50838 1.50838C1.72717 1.28958 2.02391 1.16667 2.33333 1.16667V1.16667ZM1.16667 4.522L6.7235 7.51333C6.80848 7.55908 6.90349 7.58303 7 7.58303C7.09651 7.58303 7.19152 7.55908 7.2765 7.51333L12.8333 4.522V9.33333C12.8333 9.64275 12.7104 9.9395 12.4916 10.1583C12.2728 10.3771 11.9761 10.5 11.6667 10.5H2.33333C2.02391 10.5 1.72717 10.3771 1.50838 10.1583C1.28958 9.9395 1.16667 9.64275 1.16667 9.33333V4.522Z" fill="#FE9F0F"/>
</svg>
